<?xml version="1.0" encoding="utf-8"?>
<svg width="260" height="260" xmlns="http://www.w3.org/2000/svg">
  <path style="stroke: none; fill: rgb(255, 236, 245);" d="M 183 182 C 183 163.139 185.246 142.669 182.572 124 C 181.157 114.123 177.894 104.837 171.532 97 C 166.709 91.058 160.833 86.198 154 82.76 C 147.967 79.724 141.69 78.108 135 77.286 C 92.511 72.068 64.235 120.06 83.792 156 C 87.443 162.708 92.839 168.578 99 173.073 C 106.072 178.231 114.404 181.218 123 182.561 C 130.092 183.669 137.379 182.919 144 180.124 C 147.443 178.671 155 174.863 155 174.863 C 155 174.863 162.616 178.516 166 179.906 C 171.542 182.182 177.129 182 183 182 Z"/>
  <path style="stroke: none; fill: rgb(255, 255, 255);" d="M 123 182.561 C 114.404 181.218 106.072 178.231 99 173.073 C 92.839 168.578 87.443 162.708 83.792 156 C 65.009 121.482 90.348 75.847 130.025 76.912 L 130.025 183.045 C 127.683 183.089 125.331 182.925 123 182.561 Z"/>
  <path style="stroke: none; fill: rgb(245, 22, 96);" d="M 112.443 107.909 C 110.016 108.675 107.372 110.059 105.639 111.923 C 93.75 124.726 107.51 140.991 117.597 149.506 C 121.337 152.663 126.833 158.651 132.249 156.767 C 135.591 155.606 138.58 152.644 141.265 150.435 C 151.764 141.795 167.596 123.887 153.422 110.999 C 145.462 103.761 129.994 110.792 129.994 110.792 C 129.994 110.792 119.279 105.756 112.443 107.909 Z"/>
  <path style="fill: rgb(255, 253, 254); stroke: none;" d="M 118.094 138.865 C 114.553 131.042 113.886 124.363 115.945 114.538 C 103.837 118.444 110.634 133.483 118.094 138.865 Z"/>
</svg>